<?xml version="1.0" encoding="utf-8"?>
<?xml-stylesheet type="text/xsl" href="rss1.xsl"?>
<rss version="2.0" xmlns:atom="http://www.w3.org/2005/Atom" xmlns:content="http://purl.org/rss/1.0/modules/content/" xmlns:dc="http://purl.org/dc/elements/1.1/" xmlns:media="http://search.yahoo.com/mrss/">
<channel>
 <title>Getty</title>
 <link>http://www.gettyimg.com/</link>
 <atom:link href="http://www.gettyimg.com/" rel="self" type="application/rss+xml" />

 
                <item>
                <title><![CDATA[【Music Videos】Ariana Grande - yes, and？[1080P AM WEB-DL DDP 5.1 ATMOS] - By RK✪]]></title>
                <link><![CDATA[https://sharemania.us/threads/ariana-grande-yes-and%EF%BC%9F-1080p-am-web-dl-ddp-5-1-atmos-by-rk%E2%9C%AA.235681/]]></link>
                <description><![CDATA[<article>
<blockquote class="messageText SelectQuoteContainer ugc baseHtml">
<b>Ariana Grande - yes, and？[1080P AM WEB-DL DDP 5.1 ATMOS] - By RK✪</b><br>
<br>
<b><i><span style="color: #0000ff">Hear The Difference!!<br>
</span></i></b><br>
<span style="color: #808080"><b>Note:</b> This is the shorter version with Dolby Atmos</span><br>
<br>
<div class="bbCodeBlock bbCodeCode">
<div class="type">Code:</div>
<pre>Media Info:
Format                      : Matroska
Format version              : Version 4
File size                   : 196 MiB
Duration                    : 3 min 35 s
Overall bit rate            : 7 647 kb/s
Frame rate                  : 23.976 FPS
Movie name                  : Ariana Grande - yes, and？- By RK✪
Encoded date                : 2024-01-12 15:57:37 UTC
Writing application         : mkvmerge v81.0 ('Milliontown') 64-bit
Writing library             : libebml v1.4.4 + libmatroska v1.7.1
Video
ID                          : 1
Format                      : AVC
Format/Info                 : Advanced Video Codec
Format profile              : High@L4
Format settings             : CABAC / 5 Ref Frames
Format settings, CABAC      : Yes
Format settings, Reference  : 5 frames
Codec ID                    : V_MPEG4/ISO/AVC
Duration                    : 3 min 33 s
Bit rate                    : 6 675 kb/s
Width                       : 1 438 pixels
Height                      : 1 080 pixels
Display aspect ratio        : 4:3
Frame rate mode             : Constant
Frame rate                  : 23.976 (24000/1001) FPS
Color space                 : YUV
Chroma subsampling          : 4:2:0
Bit depth                   : 8 bits
Scan type                   : Progressive
Bits/(Pixel*Frame)          : 0.179
Stream size                 : 170 MiB (86%)
Title                       : - By RK✪
Default                     : Yes
Forced                      : No
Color range                 : Limited
Color primaries             : BT.709
Transfer characteristics    : BT.709
Matrix coefficients         : BT.709
Audio #1
ID                          : 2
Format                      : E-AC-3 JOC
Format/Info                 : Enhanced AC-3 with Joint Object Coding
Commercial name             : Dolby Digital Plus with Dolby Atmos
Codec ID                    : A_EAC3
Duration                    : 3 min 35 s
Bit rate mode               : Constant
Bit rate                    : 768 kb/s
Channel(s)                  : 6 channels
Channel layout              : L R C LFE Ls Rs
Sampling rate               : 48.0 kHz
Frame rate                  : 31.250 FPS (1536 SPF)
Compression mode            : Lossy
Delay relative to video     : -10 ms
Stream size                 : 19.7 MiB (10%)
Title                       : - By RK✪
Language                    : English
Service kind                : Complete Main
Default                     : Yes
Forced                      : No
Complexity index            : 16
Number of dynamic objects   : 15
Bed channel count           : 1 channel
Bed channel configuration   : LFE
Audio #2
ID                          : 3
Format                      : AAC LC
Format/Info                 : Advanced Audio Codec Low Complexity
Codec ID                    : A_AAC-2
Duration                    : 3 min 33 s
Bit rate                    : 265 kb/s
Channel(s)                  : 2 channels
Channel layout              : L R
Sampling rate               : 48.0 kHz
Frame rate                  : 46.875 FPS (1024 SPF)
Compression mode            : Lossy
Delay relative to video     : 9 ms
Stream size                 : 6.75 MiB (3%)
Title                       : - By RK✪
Language                    : English
Default                     : No
Forced                      : No
Text
ID                          : 4
Format                      : UTF-8
Codec ID                    : S_TEXT/UTF8
Codec ID/Info               : UTF-8 Plain Text
Duration                    : 2 min 43 s
Bit rate                    : 86 b/s
Frame rate                  : 0.300 FPS
Count of elements           : 49
Stream size                 : 1.74 KiB (0%)
Title                       : - By RK✪
Language                    : English
Default                     : Yes
Forced                      : No
</pre>
</div><b><span style="color: #ff0000">Password:</span></b><br>
<br>
<div class="bbCodeBlock bbCodeVfcHH HiddenContent">
<div class="attribution type">Hidden Content:</div>
<blockquote>You must reply before you can see the hidden data contained here.</blockquote>
</div><b><span style="color: #00b300">Link:</span></b><br>
<br>
<div class="bbCodeBlock bbCodeVfcHH HiddenContent">
<div class="attribution type">Hidden Content:</div>
<blockquote>You must reply before you can see the hidden data contained here.</blockquote>
</div>
<div class="messageTextEndMarker">&nbsp;</div>
</blockquote>
</article>]]></description>
                <author><![CDATA[RK94]]></author>
                </item>

                
                <item>
                <title><![CDATA[【Albums (lossy)】Dolby Atmos - Britney Spears – Britney Jean (Deluxe Version) [Dolby Digital Plus with Dolby Atmos]]]></title>
                <link><![CDATA[https://sharemania.us/threads/britney-spears-%E2%80%93-britney-jean-deluxe-version-dolby-digital-plus-with-dolby-atmos.235683/]]></link>
                <description><![CDATA[<article>
<blockquote class="messageText SelectQuoteContainer ugc baseHtml">
Thanks
<div class="messageTextEndMarker">&nbsp;</div>
</blockquote>
</article>]]></description>
                <author><![CDATA[Lejacobini]]></author>
                </item>

                
                <item>
                <title><![CDATA[【Albums (lossy)】Dolby Atmos - Britney Spears – “…Baby One More Time” [Dolby Atmos]]]></title>
                <link><![CDATA[https://sharemania.us/threads/britney-spears-%E2%80%93-%E2%80%9C%E2%80%A6baby-one-more-time%E2%80%9D-dolby-atmos.235680/]]></link>
                <description><![CDATA[<article>
<blockquote class="messageText SelectQuoteContainer ugc baseHtml">
<div style="text-align: center"><img src="https://cinepop.com.br/wp-content/uploads/2021/11/britney-jean.png" class="bbCodeImage LbImage" alt="[​IMG]" data-url="https://cinepop.com.br/wp-content/uploads/2021/11/britney-jean.png" style=""> <br>
​</div><i>ID :</i> 1<br>
<i>Formato :</i> E-AC-3 JOC<br>
<i>Formato/Informações :</i> Enhanced AC-3 with Joint Object Coding<br>
<i>Commercial name :</i> Dolby Digital Plus with Dolby Atmos<br>
<i>ID do Codec :</i> ec-3<br>
<i>Taxa de bits :</i> 768 kb/s<br>
<i>Nº de canais :</i> 6 canais<br>
<i>Channel layout :</i> L R C LFE Ls Rs<br>
<i>Taxa de amostragem :</i> 48.0 kHz<br>
<i>Taxa de quadros :</i> 31.250 FPS (1536 SPF)<br>
<i>Compression mode :</i> Lossy<br>
<i>Service kind :</i> Complete Main<br>
<i>Complexity index :</i> 16<br>
<i>Number of dynamic objects :</i> 15<br>
<i>Bed channel count :</i> 1 canal<br>
<i>Bed channel configuration :</i> LFE<br>
<br>
<div class="bbCodeBlock bbCodeVfcHH HiddenContent">
<div class="attribution type">Hidden Content:</div>
<blockquote>You must reply before you can see the hidden data contained here.</blockquote>
</div>
<div class="messageTextEndMarker">&nbsp;</div>
</blockquote>
</article>]]></description>
                <author><![CDATA[Lejacobini]]></author>
                </item>

                
                <item>
                <title><![CDATA[【Apple Music】WEB-RiP - Ariana Grande - yes, and (2024) 2160p AM WEB-DL AAC.2.0 H.265]]></title>
                <link><![CDATA[https://sharemania.us/threads/ariana-grande-yes-and-2024-2160p-am-web-dl-aac-2-0-h-265.235684/]]></link>
                <description><![CDATA[<article>
<blockquote class="messageText SelectQuoteContainer ugc baseHtml">
<a href="https://sharemania.us/threads/britney-spears-britney-jean-deluxe-version-e-ac3-joc-16bits-48khz-5-1-768kbits.235540/" class="internalLink">https://sharemania.us/threads/britn...n-e-ac3-joc-16bits-48khz-5-1-768kbits.235540/</a>
<div class="messageTextEndMarker">&nbsp;</div>
</blockquote>
</article>]]></description>
                <author><![CDATA[Yennefer]]></author>
                </item>

                </channel></rss>